HIERARCHY
ROOT Hips
{
	OFFSET 2.231639 107.614326 0.831361
	CHANNELS 6 Xposition Yposition Zposition Xrotation Yrotation Zrotation
	JOINT Chest
	{
		OFFSET 0.589635 13.591431 1.039065
		CHANNELS 3 Xrotation Yrotation Zrotation
		JOINT Chest2
		{
			OFFSET -0.125659 21.306129 2.258243
			CHANNELS 3 Xrotation Yrotation Zrotation
			JOINT Chest3
			{
				OFFSET -0.259441 14.923126 0.230152
				CHANNELS 3 Xrotation Yrotation Zrotation
				JOINT Neck
				{
					OFFSET 0.632337 17.196976 1.574787
					CHANNELS 3 Xrotation Yrotation Zrotation
					JOINT Head
					{
						OFFSET -0.194582 10.350739 1.628472
						CHANNELS 3 Xrotation Yrotation Zrotation
						End Site
						{
							OFFSET -0.190356 10.361908 1.556377
						}
					}
				}
				JOINT LeftCollar
				{
					OFFSET 4.805201 12.789536 3.891320
					CHANNELS 3 Xrotation Yrotation Zrotation
					JOINT LeftUpArm
					{
						OFFSET 14.015066 -5.384567 -9.115026
						CHANNELS 3 Xrotation Yrotation Zrotation
						JOINT LeftLowArm
						{
							OFFSET 2.926603 -33.510544 -2.864701
							CHANNELS 3 Xrotation Yrotation Zrotation
							JOINT LeftHand
							{
								OFFSET 2.089745 -29.615097 4.418836
								CHANNELS 3 Xrotation Yrotation Zrotation
								End Site
								{
									OFFSET 0.456730 -6.472549 0.965761
								}
							}
						}
					}
				}
				JOINT RightCollar
				{
					OFFSET -3.598683 13.064667 4.262955
					CHANNELS 3 Xrotation Yrotation Zrotation
					JOINT RightUpArm
					{
						OFFSET -14.168253 -5.952698 -8.504261
						CHANNELS 3 Xrotation Yrotation Zrotation
						JOINT RightLowArm
						{
							OFFSET -4.070501 -33.432083 -2.337135
							CHANNELS 3 Xrotation Yrotation Zrotation
							JOINT RightHand
							{
								OFFSET -1.992155 -28.783897 8.274883
								CHANNELS 3 Xrotation Yrotation Zrotation
								End Site
								{
									OFFSET -0.435406 -6.291008 1.808560
								}
							}
						}
					}
				}
			}
		}
	}
	JOINT LeftUpLeg
	{
		OFFSET 10.011374 -0.436699 0.028382
		CHANNELS 3 Xrotation Yrotation Zrotation
		JOINT LeftLowLeg
		{
			OFFSET 5.142191 -47.002968 -2.875474
			CHANNELS 3 Xrotation Yrotation Zrotation
			JOINT LeftFoot
			{
				OFFSET 2.557264 -42.850540 -12.564218
				CHANNELS 3 Xrotation Yrotation Zrotation
				JOINT LeftToe
				{
					OFFSET 6.411560 -17.571716 14.480542
					CHANNELS 3 Xrotation Yrotation Zrotation
					End Site
					{
						OFFSET 9.072298 -3.533464 21.558455
					}
				}
			}
		}
	}
	JOINT RightUpLeg
	{
		OFFSET -10.011388 0.436501 -0.028397
		CHANNELS 3 Xrotation Yrotation Zrotation
		JOINT RightLowLeg
		{
			OFFSET -2.711076 -47.289707 0.587680
			CHANNELS 3 Xrotation Yrotation Zrotation
			JOINT RightFoot
			{
				OFFSET -0.716718 -42.522995 -13.851372
				CHANNELS 3 Xrotation Yrotation Zrotation
				JOINT RightToe
				{
					OFFSET -3.380398 -17.967228 15.010275
					CHANNELS 3 Xrotation Yrotation Zrotation
					End Site
					{
						OFFSET -6.750717 -4.182777 22.282017
					}
				}
			}
		}
	}
}
MOTION
Frames: 8
Frame Time: 0.033333
-5.653538 105.289787 -1.111723 4.667181 0.531731 0.818707 -4.424279 0.097545 0.936560 0.585146 0.019493 -0.090585 0.227372 -0.480242 -0.934410 -4.297612 1.170241 -0.728903 -0.000002 -0.000000 -0.000000 -0.134907 -1.833462 -1.917976 -4.746809 -4.849760 3.544194 -7.477180 -0.816325 -6.884931 0.000004 -0.000004 -0.000001 0.734339 5.164543 -1.088440 -3.093669 3.086718 -1.486066 -2.909562 1.546847 6.962973 -0.000001 0.000002 0.000000 -1.011587 0.056757 -3.654281 -5.219881 1.007238 -0.661344 -3.933250 -17.120402 -2.050113 -0.000002 0.000001 -0.000000 -2.500071 0.335699 -0.344294 -0.899095 -0.275231 -0.157234 0.278093 4.449781 0.157129 0.000001 0.000002 0.000000 
-5.647759 105.294029 -1.112966 4.660717 0.338133 0.862290 -4.165389 0.090635 0.915432 -0.921734 0.063456 -0.055987 1.474592 -0.500030 -1.007089 -4.769011 1.187248 -0.725780 -0.000002 0.000000 -0.000000 -0.104235 -1.807860 -2.006275 -4.828777 -5.029425 3.525815 -7.452143 -1.015476 -6.568067 -0.000000 -0.000002 -0.000000 0.796977 5.192175 -1.163470 -3.036009 3.148158 -1.360201 -2.955123 1.716422 6.922667 -0.000001 -0.000001 0.000002 -1.152950 0.061199 -3.724126 -5.093649 0.996688 -0.663404 -3.705967 -16.811829 -2.006522 -0.000001 -0.000000 0.000000 -2.460204 0.354130 -0.428193 -0.793194 -0.274157 -0.150966 -0.334984 4.941183 0.236930 -0.000000 0.000002 0.000000 
-5.641672 105.295181 -1.112539 4.520725 0.339755 0.744656 -3.828009 0.070066 0.999245 -0.516948 0.011227 0.000947 0.939177 -0.517043 -0.998866 -4.987518 1.259857 -0.692127 0.000000 -0.000000 -0.000000 -0.161084 -1.633157 -1.891073 -4.953199 -5.117208 3.472618 -7.261780 -1.092568 -6.818773 0.000001 -0.000007 0.000001 0.749751 4.915890 -1.111294 -3.317745 3.396684 -1.506444 -2.644836 1.785117 7.110959 -0.000000 -0.000002 -0.000000 -1.074563 0.064974 -3.599543 -4.846762 0.953792 -0.699479 -3.801685 -16.814621 -2.041131 -0.000001 0.000003 -0.000000 -2.267511 0.344202 -0.316676 -0.897097 -0.186588 -0.100675 -0.718936 4.828984 0.377009 0.000001 -0.000001 -0.000000 
-5.634915 105.296867 -1.116679 5.150365 -0.040957 0.710446 -4.495030 0.099233 0.994039 -0.099171 0.038824 -0.089508 0.691165 -0.034910 -0.829847 -5.083692 1.130467 -0.658057 -0.000001 -0.000000 -0.000000 -0.122405 -1.923849 -1.864860 -4.988197 -5.058136 3.423896 -7.658061 -1.029191 -6.750552 0.000002 -0.000004 0.000000 0.768451 5.233799 -1.316986 -3.380654 3.314562 -1.354475 -2.567789 1.706936 7.043183 -0.000001 -0.000002 -0.000000 -1.567170 0.060416 -3.547711 -5.074047 0.976816 -0.767949 -3.618911 -16.467641 -1.968321 -0.000001 0.000001 0.000000 -2.743422 0.355510 -0.292668 -1.423102 -0.295792 -0.156567 -0.255521 4.980747 0.249383 -0.000000 0.000002 0.000000 
-5.627048 105.292130 -1.120364 5.005521 -0.291965 0.757981 -4.268005 0.094626 0.892690 -0.263524 0.082967 -0.102956 0.983046 0.143644 -0.762322 -5.937049 1.224668 -0.565726 -0.000001 -0.000000 -0.000000 -0.076728 -1.806027 -1.724990 -5.130513 -5.069891 3.397726 -7.759571 -0.696218 -6.952781 -0.000001 -0.000004 0.000001 0.761695 5.298065 -1.425944 -3.403195 3.289542 -1.221780 -2.734913 1.364281 7.110627 -0.000001 0.000003 -0.000001 -1.292210 0.021570 -3.622535 -4.993299 0.965465 -0.783879 -4.023010 -16.266425 -1.914549 -0.000001 0.000001 0.000001 -2.422866 0.325595 -0.318188 -1.570535 -0.343394 -0.254137 0.003253 5.121126 0.204654 -0.000000 0.000000 0.000002 
-5.614237 105.283890 -1.112810 5.233222 0.027132 0.718207 -4.578203 0.085823 1.017686 0.358884 0.063148 -0.086372 0.462783 0.117514 -0.809493 -5.951541 1.230342 -0.473768 -0.000001 -0.000000 -0.000000 0.009235 -2.497629 -1.583273 -5.162146 -4.950047 3.154143 -7.802391 -0.436073 -6.714612 0.000001 -0.000005 -0.000000 0.689133 4.904317 -1.414087 -3.444820 3.356719 -1.311658 -2.895502 1.082519 7.188709 -0.000000 0.000000 0.000001 -1.469777 -0.019110 -3.648405 -4.991758 0.924083 -0.712647 -4.362150 -16.762389 -1.960220 -0.000001 0.000003 0.000001 -2.458989 0.337085 -0.295959 -1.862459 -0.359296 -0.221102 -0.024458 4.890164 0.202962 -0.000001 0.000002 -0.000001 
-5.602995 105.278786 -1.109064 5.446815 -0.139801 0.801994 -4.596900 0.116045 0.957140 0.236355 0.114633 -0.187110 0.454817 0.221875 -0.705245 -5.850288 1.197624 -0.496846 -0.000001 -0.000000 -0.000000 -0.073185 -2.204638 -1.681857 -4.900185 -4.614204 3.344436 -8.051126 -0.277537 -6.993519 0.000000 -0.000002 0.000001 0.642564 4.850218 -1.387384 -3.308609 3.111818 -1.362441 -2.898479 1.074704 7.312564 0.000001 -0.000003 0.000002 -1.661647 0.044682 -3.742388 -4.878959 0.989185 -0.674164 -4.214416 -16.732994 -1.934404 -0.000001 0.000003 -0.000000 -2.608807 0.293198 -0.391233 -1.607454 -0.381817 -0.284434 0.004944 5.298275 0.147427 -0.000000 0.000000 0.000000 
-5.588814 105.277740 -1.102030 5.261707 -0.228641 0.785822 -4.463332 0.108816 1.003866 0.071245 0.097482 -0.135797 0.560323 -0.036296 -0.775249 -5.779247 1.372731 -0.657611 -0.000002 0.000000 0.000000 -0.130152 -2.019666 -1.648033 -4.764424 -4.548164 3.382700 -7.926988 -0.320065 -7.133134 0.000001 -0.000004 -0.000000 0.688940 5.338455 -1.446684 -3.355833 3.151009 -1.388077 -2.702833 1.066397 7.445261 -0.000000 -0.000002 -0.000000 -1.493422 0.014006 -3.740604 -5.187040 0.935600 -0.721042 -3.901380 -16.444381 -1.883356 -0.000001 -0.000000 -0.000001 -2.845647 0.362039 -0.378320 -1.237795 -0.290181 -0.272875 -0.263897 5.313518 0.205167 -0.000000 0.000000 0.000000 
